<?xml version="1.0" standalone="no"?>
<!DOCTYPE svg PUBLIC "-//W3C//DTD SVG 20010904//EN"
 "http://www.w3.org/TR/2001/REC-SVG-20010904/DTD/svg10.dtd">
<svg version="1.0" xmlns="http://www.w3.org/2000/svg"
 width="860.000000pt" height="680.000000pt" viewBox="0 0 860.000000 680.000000"
 preserveAspectRatio="xMidYMid meet">

<g transform="translate(0.000000,680.000000) scale(0.100000,-0.100000)"
fill="#000000" stroke="none">
<path d="M5585 6066 c-122 -39 -249 -142 -310 -251 -43 -77 -75 -193 -75 -271
0 -384 397 -655 749 -513 l53 22 32 -37 31 -38 60 54 c33 29 78 67 99 85 l39
31 -30 37 -30 36 34 68 c43 88 66 196 60 285 -4 68 -5 70 -53 113 -40 36 -114
93 -214 167 -8 6 3 -9 26 -34 92 -103 122 -226 90 -364 -22 -91 -59 -158 -121
-213 -45 -41 -103 -75 -130 -77 -5 -1 -20 -7 -32 -14 -12 -6 -28 -9 -36 -6 -8
3 -18 1 -22 -5 -3 -6 -30 -11 -58 -10 -42 1 -47 3 -27 9 18 6 11 7 -21 4 -30
-4 -55 -1 -70 7 -23 13 -28 15 -46 18 -5 0 -23 10 -41 21 -28 17 -31 23 -22
40 7 14 7 20 0 20 -5 0 -10 -7 -10 -15 0 -25 -15 -17 -59 30 -46 50 -55 71
-14 34 14 -13 22 -17 18 -9 -17 28 -39 49 -46 44 -5 -2 -13 5 -19 17 -10 17
-9 20 2 14 7 -3 4 1 -6 9 -11 9 -17 19 -13 22 4 4 2 13 -4 20 -5 6 -16 40 -23
75 -24 118 13 237 103 332 94 100 228 147 356 127 35 -6 76 -15 90 -20 14 -5
25 -8 25 -5 0 6 -162 102 -201 118 -20 8 -40 20 -43 26 -9 14 -40 13 -91 -3z"/>
<path d="M6025 5280 c-3 -5 -1 -10 4 -10 6 0 11 5 11 10 0 6 -2 10 -4 10 -3 0
-8 -4 -11 -10z"/>
<path d="M5948 5234 c-16 -8 -28 -17 -28 -20 0 -2 9 0 20 6 11 6 24 9 29 6 4
-3 8 1 8 9 0 8 -1 15 -1 15 -1 -1 -13 -8 -28 -16z"/>
<path d="M5536 5225 c-3 -9 -2 -13 4 -10 6 4 24 -1 42 -9 17 -9 41 -16 52 -16
12 1 1 8 -24 17 -25 8 -50 19 -56 24 -8 6 -14 4 -18 -6z"/>
<path d="M5688 5183 c6 -2 18 -2 25 0 6 3 1 5 -13 5 -14 0 -19 -2 -12 -5z"/>
<path d="M5778 5183 c12 -2 30 -2 40 0 9 3 -1 5 -23 4 -22 0 -30 -2 -17 -4z"/>
<path d="M5778 5143 c7 -3 16 -2 19 1 4 3 -2 6 -13 5 -11 0 -14 -3 -6 -6z"/>
<path d="M6230 5052 c-36 -31 -81 -69 -99 -84 l-34 -26 94 -109 c52 -59 96
-110 99 -113 3 -3 92 -104 197 -225 104 -121 199 -228 211 -238 11 -10 38 -21
60 -24 93 -12 173 87 138 172 -11 25 -590 706 -600 705 0 0 -30 -26 -66 -58z"/>
<path d="M3572 4558 l3 -153 528 -3 527 -2 0 -980 0 -980 -530 0 -530 0 0 150
c0 138 -8 182 -25 131 -3 -10 -24 -47 -47 -82 l-40 -63 1 -221 c2 -205 3 -221
22 -240 19 -20 33 -20 599 -20 l579 0 31 30 c53 50 60 73 60 194 0 62 4 112
10 116 6 4 10 55 10 120 0 65 -4 116 -10 120 -6 4 -10 215 -10 600 0 385 4
596 10 600 6 4 10 55 10 120 0 65 -4 116 -10 120 -5 3 -10 17 -10 31 0 13 5
24 10 24 6 0 10 45 10 114 0 66 -4 117 -10 121 -6 4 -10 58 -10 129 0 107 -3
127 -19 147 l-19 24 -571 3 -572 2 3 -152z"/>
<path d="M2595 4667 c-55 -17 -102 -32 -104 -34 -2 -1 2 -22 8 -45 9 -30 21
-49 42 -60 82 -47 48 -168 -47 -168 -35 0 -47 5 -68 31 -14 17 -26 40 -26 52
0 12 -8 49 -19 82 -20 69 -20 69 -133 35 l-66 -20 16 -50 c9 -30 23 -52 34
-56 20 -6 48 -53 48 -79 0 -33 -30 -73 -63 -84 -61 -21 -112 15 -121 84 -6 47
-34 145 -42 145 -14 0 -160 -44 -167 -50 -13 -12 14 -90 38 -108 53 -42 59
-100 16 -143 -34 -33 -78 -38 -116 -13 -26 17 -47 66 -39 89 6 14 -22 112 -35
127 -3 4 -45 -5 -92 -20 l-86 -28 12 -42 c7 -23 27 -58 44 -77 34 -39 39 -71
16 -114 -25 -49 -95 -57 -139 -16 -25 23 -30 38 -27 81 1 12 -5 48 -14 79 -18
59 -31 63 -41 10 -3 -15 -16 -67 -30 -114 -55 -190 -91 -407 -71 -428 3 -2
103 26 223 63 121 36 314 95 430 129 116 35 336 102 490 149 153 46 291 88
307 91 l27 7 0 142 c0 135 -1 146 -37 263 -27 87 -42 123 -53 122 -8 0 -60
-15 -115 -32z"/>
<path d="M5527 4482 c-70 -97 -133 -185 -141 -196 -15 -18 -17 -18 -80 5 -36
12 -68 20 -71 18 -15 -16 -315 -803 -308 -810 7 -7 572 -229 620 -243 17 -6
37 6 94 56 40 35 80 77 89 93 91 158 130 227 130 231 0 3 -15 18 -34 34 -48
43 -61 79 -43 122 12 28 23 37 56 45 25 7 55 8 79 2 20 -5 40 -9 43 -9 3 0 13
16 22 35 9 19 21 35 27 35 14 0 12 -20 -5 -50 -8 -14 -14 -28 -15 -32 0 -13
54 -35 74 -30 14 3 17 0 12 -13 -3 -9 -6 -35 -6 -56 0 -24 -4 -38 -10 -34 -5
3 -10 17 -10 30 0 24 -44 85 -61 85 -5 0 -22 -21 -38 -47 l-30 -47 42 -28 c69
-46 107 -109 107 -179 0 -114 -110 -183 -225 -139 -59 22 -44 8 182 -182 44
-38 45 -38 131 -38 l87 0 -80 29 c-44 15 -97 35 -117 44 -21 9 -38 13 -38 10
0 -3 -7 0 -15 7 -12 10 -5 17 42 41 68 35 124 94 161 169 32 66 42 192 21 268
-13 47 -49 115 -69 127 -5 3 -10 10 -10 15 0 5 30 -3 68 -17 37 -14 119 -46
182 -71 63 -24 134 -51 158 -60 32 -13 42 -22 42 -40 0 -30 25 -78 45 -85 13
-6 13 -10 1 -39 -8 -18 -51 -127 -95 -241 l-81 -209 0 -99 c0 -76 3 -99 13
-99 8 0 21 17 29 38 8 20 95 150 193 287 197 276 229 322 292 411 l42 61 -132
94 c-73 51 -206 146 -297 209 -258 182 -924 652 -935 661 -7 5 -59 -60 -138
-169z m153 73 c0 -8 -2 -15 -4 -15 -2 0 -6 7 -10 15 -3 8 -1 15 4 15 6 0 10
-7 10 -15z m245 -209 c72 -50 141 -99 155 -108 14 -9 36 -26 50 -37 l25 -20
-35 5 c-50 8 -146 -12 -206 -42 l-51 -26 -167 64 c-92 36 -168 67 -169 70 -1
4 27 47 62 97 53 76 68 91 91 91 14 0 35 6 46 14 22 17 10 24 199 -108z m-636
-129 c12 -15 12 -17 -3 -11 -9 3 -16 13 -16 22 0 8 1 13 3 11 1 -2 9 -12 16
-22z m356 -164 c94 -35 174 -68 178 -72 5 -5 -10 -11 -32 -14 -117 -15 -230
-107 -276 -224 -25 -64 -27 -81 -23 -160 3 -57 10 -100 22 -121 10 -19 15 -36
12 -39 -3 -4 -70 19 -148 50 -79 31 -158 62 -175 68 -28 9 -33 16 -33 44 0 21
-9 45 -25 64 l-26 30 20 48 c11 26 48 121 83 211 58 150 65 163 91 169 15 3
36 16 45 28 l17 23 50 -20 c28 -11 127 -49 220 -85z m669 10 c3 -4 -8 -22 -26
-41 l-33 -33 24 -20 c13 -10 19 -19 13 -19 -5 0 -15 7 -22 15 -7 8 -17 12 -23
8 -5 -3 -18 4 -27 17 -14 18 -29 24 -70 26 -59 3 -85 18 -50 29 28 9 88 -2
119 -22 24 -15 26 -15 49 15 25 33 33 37 46 25z m184 -120 c124 -86 203 -145
200 -149 -2 -2 -57 19 -123 46 l-119 48 -17 51 c-10 28 -15 51 -13 51 3 0 35
-21 72 -47z m-158 -3 c0 -5 -4 -10 -10 -10 -5 0 -10 5 -10 10 0 6 5 10 10 10
6 0 10 -4 10 -10z m480 -232 c0 -5 -9 -3 -20 4 -11 7 -20 16 -20 20 0 5 9 3
20 -4 11 -7 20 -16 20 -20z m110 -62 c0 -6 -7 -1 -15 10 -8 10 -14 26 -14 34
0 16 28 -28 29 -44z m-101 -40 c11 -13 5 -27 -35 -83 -26 -37 -57 -82 -68
-100 -19 -29 -42 -45 -34 -24 2 5 28 72 58 149 50 129 55 138 61 107 3 -19 11
-41 18 -49z m-134 64 c3 -5 1 -10 -4 -10 -6 0 -11 5 -11 10 0 6 2 10 4 10 3 0
8 -4 11 -10z m-914 -52 c15 -24 9 -57 -13 -72 -29 -20 -40 -20 -36 0 2 9 -4
21 -13 27 -55 35 -69 -59 -18 -118 17 -19 26 -35 21 -35 -16 0 -59 60 -67 93
-10 38 1 89 25 114 16 18 25 20 56 13 20 -5 41 -15 45 -22z m-742 -51 c12 -15
12 -17 -3 -11 -9 3 -16 13 -16 22 0 8 1 13 3 11 1 -2 9 -12 16 -22z"/>
<path d="M3630 4295 c0 -8 7 -15 15 -15 12 0 15 -16 15 -85 0 -69 3 -85 15
-85 12 0 15 16 15 85 0 69 3 85 15 85 8 0 15 7 15 15 0 11 -12 15 -45 15 -33
0 -45 -4 -45 -15z"/>
<path d="M3741 4233 c-7 -43 -15 -88 -18 -100 -4 -16 -1 -23 10 -23 8 0 18 11
21 25 4 14 13 25 20 25 8 0 17 -11 20 -25 9 -36 37 -33 30 3 -2 15 -10 59 -17
97 -10 58 -16 71 -33 73 -18 3 -21 -6 -33 -75z m41 -46 c-9 -18 -21 9 -15 33
l7 25 6 -25 c4 -14 5 -29 2 -33z"/>
<path d="M3860 4303 c0 -4 7 -27 16 -50 16 -40 16 -46 0 -86 -19 -50 -20 -57
-6 -57 6 0 17 15 25 33 l14 32 11 -32 c7 -18 18 -33 26 -33 17 0 18 -5 -5 54
-18 49 -18 51 0 94 23 52 23 52 6 52 -8 0 -20 -12 -27 -27 l-13 -28 -11 28
c-9 24 -36 39 -36 20z"/>
<path d="M4010 4255 l0 -55 276 0 275 0 -3 53 -3 52 -272 3 -273 2 0 -55z"/>
<path d="M2545 3970 c-121 -37 -305 -93 -410 -124 -650 -196 -821 -249 -830
-257 -15 -15 17 -10 84 12 34 12 64 20 66 18 11 -12 74 -234 68 -240 -5 -3
-55 -20 -111 -37 -57 -17 -106 -33 -110 -36 -15 -16 13 -11 117 21 62 19 115
33 116 31 2 -2 19 -55 38 -118 25 -83 32 -117 23 -122 -22 -12 -249 -77 -257
-73 -3 3 -10 20 -13 40 -4 19 -11 37 -16 40 -16 10 -2 -45 103 -390 147 -488
154 -510 164 -508 8 1 856 256 981 295 34 10 62 24 62 29 0 7 -10 9 -24 5 -24
-6 -26 -2 -51 81 -14 49 -31 103 -37 121 -5 18 -8 36 -5 38 3 3 49 19 103 35
101 30 112 35 101 45 -6 6 -54 -5 -169 -40 l-47 -15 -36 116 c-20 63 -34 117
-31 120 2 3 71 25 152 49 151 44 163 44 164 4 0 -8 5 -22 11 -30 8 -11 9 -3 6
33 -3 35 -1 47 9 47 8 0 14 7 14 16 0 11 -6 15 -19 11 -15 -4 -23 11 -51 104
-18 59 -33 112 -32 116 0 4 42 22 93 39 51 17 95 36 97 42 5 17 -3 16 -106
-17 -51 -16 -94 -26 -97 -22 -12 21 -66 204 -63 218 2 10 31 24 83 40 44 13
101 30 127 38 l47 14 32 -105 c18 -57 36 -104 41 -104 4 0 8 5 8 12 0 20 -122
412 -131 423 -5 5 -9 19 -9 32 0 16 -6 23 -17 22 -10 -1 -117 -31 -238 -69z
m274 -73 c18 -60 30 -111 28 -114 -5 -5 -261 -83 -263 -80 -8 10 -64 221 -62
229 5 13 250 89 259 79 4 -3 21 -55 38 -114z m-292 -86 c19 -62 33 -114 31
-116 -5 -4 -302 -94 -304 -92 -8 8 -67 228 -62 232 8 8 281 93 292 91 5 -1 24
-53 43 -115z m-329 -99 c19 -62 32 -116 28 -119 -5 -5 -283 -90 -314 -95 -10
-2 -24 31 -49 115 -20 65 -34 119 -32 121 9 8 305 94 319 92 9 -1 26 -40 48
-114z m-353 -106 c20 -65 35 -119 33 -120 -20 -14 -322 -96 -328 -90 -13 14
-75 223 -67 230 6 7 320 103 324 100 2 -1 19 -55 38 -120z m750 -23 c14 -49
30 -101 36 -117 5 -16 8 -30 7 -31 -6 -5 -303 -93 -305 -91 -4 4 -72 230 -70
232 3 3 290 92 299 93 4 1 19 -38 33 -86z m-318 -132 c19 -62 32 -115 29 -118
-7 -8 -321 -100 -327 -97 -8 4 -73 233 -68 238 9 8 305 94 318 93 8 -1 27 -47
48 -116z m-354 -98 c20 -65 33 -121 29 -125 -9 -8 -295 -98 -313 -98 -11 0
-25 35 -49 115 -18 63 -30 118 -27 121 4 5 298 100 318 103 3 1 22 -52 42
-116z m759 -58 c20 -64 31 -118 26 -121 -16 -10 -293 -93 -296 -89 -7 7 -72
228 -69 232 3 3 284 90 298 92 3 1 21 -51 41 -114z m-353 -22 c6 -21 22 -74
35 -118 14 -43 24 -80 23 -82 -2 -1 -57 -18 -122 -39 -66 -20 -139 -42 -163
-49 -33 -10 -44 -11 -47 -2 -15 42 -65 212 -65 221 0 11 280 103 317 105 7 1
17 -16 22 -36z m-324 -192 c18 -61 29 -113 24 -116 -12 -8 -301 -95 -315 -95
-10 0 -74 192 -74 223 0 11 36 26 118 52 64 20 135 42 157 49 22 8 44 10 49 6
4 -5 23 -58 41 -119z m-354 -101 l36 -120 -101 -31 c-56 -16 -114 -34 -130
-40 -17 -5 -33 -6 -37 -2 -12 15 -71 224 -64 231 6 7 229 79 250 81 6 1 27
-53 46 -119z m749 66 c0 -2 16 -54 35 -117 19 -62 33 -114 32 -115 -4 -4 -291
-92 -311 -96 -17 -2 -25 12 -53 102 -18 58 -33 112 -33 121 0 12 38 28 153 62
145 44 177 52 177 43z m-320 -213 c16 -56 30 -109 30 -116 0 -9 -54 -30 -160
-62 -88 -27 -162 -46 -164 -44 -6 6 -76 232 -74 235 10 9 325 99 330 95 4 -4
21 -52 38 -108z m-349 -114 c20 -63 35 -115 34 -117 -8 -10 -261 -80 -267 -74
-12 12 -70 212 -65 225 4 12 233 87 252 83 5 -2 26 -54 46 -117z m783 -51 c20
-67 33 -125 29 -128 -17 -14 -317 -100 -324 -93 -4 4 -23 61 -42 126 -31 105
-34 119 -19 125 42 15 289 90 303 91 12 1 25 -30 53 -121z m-351 -112 c20 -66
35 -121 34 -123 -6 -5 -307 -93 -320 -93 -18 0 -90 243 -74 250 59 22 313 95
318 91 4 -3 23 -60 42 -125z m-352 -102 c20 -65 34 -122 30 -125 -14 -14 -253
-81 -260 -73 -7 8 -72 215 -75 237 -1 10 243 87 259 83 5 -1 26 -56 46 -122z"/>
<path d="M2729 3851 c-21 -16 -22 -22 -11 -45 8 -17 19 -26 36 -26 47 0 61 50
20 77 -19 12 -24 11 -45 -6z"/>
<path d="M2452 3768 c-19 -19 -14 -56 9 -68 16 -9 26 -8 45 5 27 17 29 27 14
56 -12 21 -50 25 -68 7z"/>
<path d="M2538 3509 c-21 -12 -24 -49 -6 -67 19 -19 56 -14 68 9 9 16 8 26 -5
45 -17 26 -30 29 -57 13z"/>
<path d="M2612 3238 c-19 -19 -14 -56 9 -68 16 -9 26 -8 45 5 27 17 29 27 14
56 -12 21 -50 25 -68 7z"/>
<path d="M3459 3988 c0 -4 0 -371 0 -382 1 -5 26 29 56 75 l55 84 0 113 0 112
-55 0 c-30 0 -55 -1 -56 -2z"/>
<path d="M5862 3808 c-7 -7 -12 -19 -12 -28 0 -22 28 -60 45 -60 14 0 55 67
55 90 0 14 -73 13 -88 -2z"/>
<path d="M5848 3568 c-63 -121 -79 -161 -68 -172 15 -15 89 -36 128 -36 67 0
122 52 122 116 0 43 -103 154 -142 154 -4 0 -22 -28 -40 -62z"/>
<path d="M2806 3584 c-9 -8 -16 -22 -16 -29 0 -16 27 -45 41 -45 24 0 49 22
49 43 0 44 -43 62 -74 31z"/>
<path d="M3711 3270 l-32 -60 440 0 441 0 0 60 0 60 -409 0 -408 0 -32 -60z"/>
<path d="M2696 2974 c-20 -20 -20 -48 -1 -64 20 -16 23 -13 31 38 7 45 -3 54
-30 26z"/>
<path d="M3848 2806 l-3 -101 -114 -3 c-111 -3 -113 -3 -107 -25 3 -12 6 -28
6 -35 0 -7 24 -37 53 -66 62 -61 120 -82 194 -72 167 23 229 236 102 350 -21
20 -42 36 -47 36 -4 0 -24 4 -44 9 l-37 9 -3 -102z m100 -115 c6 -1 12 -11 12
-22 0 -17 -3 -19 -14 -10 -11 9 -15 9 -19 -1 -4 -10 -10 -8 -21 6 -18 22 -13
36 12 31 9 -2 23 -4 30 -4z m-238 -23 c0 -18 -6 -23 -29 -25 -19 -1 -31 4 -35
13 -9 23 2 34 35 34 23 0 29 -4 29 -22z"/>
<path d="M2376 2008 c-9 -29 -56 -202 -105 -384 -50 -182 -93 -338 -96 -346
-13 -34 367 -336 585 -465 131 -78 320 -173 343 -173 10 0 29 144 84 643 39
353 70 643 69 644 -1 2 -124 21 -272 43 -148 22 -340 52 -427 65 -88 14 -161
25 -163 25 -2 0 -10 -24 -18 -52z"/>
<path d="M4405 1834 c-136 -19 -237 -59 -260 -104 -19 -37 -19 -90 0 -163 30
-117 81 -182 175 -226 49 -23 67 -26 175 -26 86 0 136 5 177 18 77 23 150 83
179 146 22 46 27 50 60 51 20 0 63 3 96 6 l60 7 23 -48 c64 -132 205 -195 406
-182 162 10 256 80 303 225 22 67 28 161 11 192 -41 77 -291 128 -493 101
-122 -16 -189 -43 -231 -92 -29 -35 -37 -39 -54 -30 -26 14 -97 14 -122 1 -16
-9 -22 -6 -34 17 -17 35 -74 67 -152 88 -58 15 -259 28 -319 19z m248 -59 c84
-14 164 -49 181 -77 6 -9 8 -19 6 -21 -6 -5 -573 45 -580 50 -8 7 23 22 65 34
105 30 215 34 328 14z m875 5 c96 -13 167 -39 197 -71 46 -47 32 -56 -112 -65
-166 -11 -405 -11 -465 -1 -46 8 -47 8 -36 37 27 78 231 127 416 100z m-944
-162 c98 -6 170 -15 160 -18 -10 -4 -82 -11 -159 -15 -154 -8 -170 -13 -265
-84 -30 -23 -59 -40 -64 -38 -13 4 -55 123 -56 156 l0 24 103 -7 c56 -3 183
-11 281 -18z m950 -92 c13 -17 38 -57 55 -88 l32 -57 -23 -13 c-31 -17 -248
-18 -305 0 -23 7 -61 27 -85 45 -44 34 -94 109 -84 126 4 5 79 10 168 10 89 1
164 3 165 5 2 2 15 4 29 4 16 0 33 -11 48 -32z m206 29 c0 -14 -33 -85 -39
-83 -18 8 -100 74 -101 81 0 4 32 7 70 7 39 0 70 -2 70 -5z m-929 -62 c-47
-91 -129 -134 -272 -141 -83 -4 -199 10 -199 24 0 13 74 116 96 133 25 20 39
21 211 21 l183 0 -19 -37z"/>
</g>
</svg>
